<svg version="1.1" xmlns="http://www.w3.org/2000/svg" xmlns:xlink="http://www.w3.org/1999/xlink" x="0px" y="0px" width="500px"
 height="500px" viewBox="0 0 500 500" enable-background="new 0 0 500 500" xml:space="preserve">
    <g id="이상한모임">
        <g>
            <path fill="#000000" d="M180.647,389.499c-2.698,0-5.852-1.786-5.852-6.649v-9.042c0-3.951,2.584-6.991,6.991-6.991h3.381
                c4.217,0,6.839,3.153,6.839,7.105v9.156c0,3.837-2.545,6.421-5.205,6.421H180.647z M184.447,385.586
                c1.899,0,2.773-1.824,2.773-3.268v-8.055c0-1.634-1.254-3.078-2.773-3.078h-1.9c-1.52,0-2.925,1.444-2.925,3.078v8.055
                c0,2.47,0.988,3.268,2.925,3.268H184.447z M200.291,364.309h-5.091v31.953h5.091V364.309z"/>
            <path fill="#000000" d="M216.556,365.639c0.342,4.521,4.597,11.702,7.485,15.273h-5.737c-1.52-1.823-3.153-5.015-4.407-7.94
                c-1.292,2.583-2.28,5.167-4.445,7.94h-6.421c5.433-4.559,8.207-13.374,8.435-15.273H216.556z M226.283,384.712
                c2.735,0,4.939,1.71,4.939,4.104v3.039c0,2.09-2.127,4.027-4.787,4.027h-12.918c-3.496,0-5.396-1.178-5.396-4.065v-2.887
                c0-2.812,2.128-4.218,5.281-4.218H226.283z M214.922,388.663c-1.444,0-1.976,0.38-1.976,1.292v1.102
                c0,1.103,1.064,1.103,2.052,1.103h9.727c0.912,0,2.052-0.381,2.052-1.103v-1.178c0-0.722-0.76-1.216-2.052-1.216H214.922z
                 M235.135,374.947h-4.255v7.979h-4.863v-18.655h4.863v6.231h4.255V374.947z"/>
            <path fill="#000000" d="M248.742,366.437h6.117v3.495h-2.735c0.874,0.912,1.405,2.166,1.405,3.496v3.951
                c0,3.191-2.355,5.471-5.053,5.471h-4.711c-2.698,0-5.091-2.279-5.091-5.091v-4.331c0-1.33,0.532-2.584,1.406-3.496h-2.66v-3.495
                h6.117v-2.166h5.205V366.437z M263.484,395.502h-22.721v-10.524h4.788v6.003h17.934V395.502z M249.122,376.847v-2.432
                c0-1.216-0.912-2.127-2.166-2.127h-1.596c-1.216,0-2.318,0.911-2.318,2.127v2.432c0,1.254,0.722,2.166,1.938,2.166h2.127
                C248.362,379.013,249.122,378.101,249.122,376.847z M262.42,372.819h4.483v4.56h-4.483v8.473h-4.901v-21.619h4.901V372.819z"/>
            <path fill="#000000" d="M298.063,392.767h-28.876v-4.445h11.893v-4.293h5.091v4.293h11.893V392.767z M272.493,367.12v15.616
                h22.455V367.12H272.493z M290.236,378.557h-12.538v-7.295h12.538V378.557z"/>
            <path fill="#000000" d="M315.621,370.806v5.243c0,2.926-2.317,5.243-5.091,5.243h-4.901c-2.773,0-5.281-2.317-5.281-5.243v-5.243
                c0-2.926,2.508-5.243,5.281-5.243h4.901C313.304,365.562,315.621,367.88,315.621,370.806z M326.031,384.598v11.664h-22.492
                v-11.664H326.031z M311.176,371.87c0-1.292-0.987-2.242-2.241-2.242h-1.71c-1.254,0-2.355,0.95-2.355,2.242v3.115
                c0,1.292,1.102,2.279,2.355,2.279h1.71c1.254,0,2.241-0.987,2.241-2.279V371.87z M322.422,388.587h-14.817v3.609h14.817V388.587z
                 M326.031,364.232h-4.407v18.124h4.407V364.232z"/>
        </g>
    </g>
</svg>
